<?xml version="1.0" encoding="utf-8"?>
<!-- Generator: Adobe Illustrator 26.0.3, SVG Export Plug-In . SVG Version: 6.00 Build 0)  -->
<svg version="1.1" id="レイヤー_1" xmlns="http://www.w3.org/2000/svg" xmlns:xlink="http://www.w3.org/1999/xlink" x="0px"
	 y="0px" viewBox="0 0 1920 500" style="enable-background:new 0 0 1920 500;" xml:space="preserve">
<style type="text/css">
	.st0{fill:none;stroke:#FFFFFF;stroke-width:42;stroke-linejoin:round;stroke-miterlimit:10;}
	.st1{fill:#ED1C24;}
</style>
<g>
	<path class="st0" d="M332.97,247.12c0,42.2-1.9,73.1-5.7,92.7c-3.6,18.8-9.9,31.3-18.9,37.5c-6.8,4.6-18.4,6.9-34.8,6.9
		c-21,0-41.4-1.5-61.2-4.5v-56.1c16,3.8,30.2,5.7,42.6,5.7c7,0,11.7-3.7,14.1-11.1c3.4-10.8,5.1-33.5,5.1-68.1v-17.4h-54.9
		c-7,76.8-40.3,128.9-99.9,156.3l-44.7-42.9c29.4-12.4,51-28.7,64.8-48.9c11.2-16.6,18.2-38.1,21-64.5h-70.5v-55.5h72.3v-48.3h58.8
		v48.3h111.9V247.12z"/>
	<path class="st0" d="M620.37,244.72c-26.6,78.4-83.4,126.7-170.4,144.9l-42.9-51.6c70.8-12.4,116.6-37.7,137.4-75.9h-174.9v-54.3
		h250.8V244.72z M594.27,189.82h-198.6v-54h198.6V189.82z"/>
	<path class="st0" d="M797.37,266.92c-15.8,20-32,37.5-48.6,52.5c-15.4,14-35,29.1-58.8,45.3l-44.1-42.9c28-18,49.6-33.3,64.8-45.9
		c17.8-14.8,33.9-31.5,48.3-50.1h-103.2v-54.6h141.6v-42.6h59.7v42.6h53.4v54.6h-53.4v117c0,17.6-4.3,29.9-12.9,36.9
		c-7.2,5.8-19.2,8.7-36,8.7h-37.5l-17.1-55.2h32.4c4.8,0,7.9-0.7,9.3-2.1c1.4-1.4,2.1-4.3,2.1-8.7V266.92z"/>
	<path class="st0" d="M1215.87,231.22h-50.7c-8.6,40.4-23.2,73.3-43.8,98.7c-20.6,25.4-50.6,46.6-90,63.6l-41.1-49.5
		c36.6-14.4,63.1-29.75,79.5-46.05c16.4-16.3,27.9-38.55,34.5-66.75h-68.1c-15.8,21.4-34.4,40.4-55.8,57l-45.3-38.7
		c23.8-19.4,42.5-38.5,56.1-57.3c14.2-19.8,25.3-42.7,33.3-68.7l60.6,8.4c-4.4,14.6-9.6,28.6-15.6,42h146.4V231.22z"/>
	<path class="st0" d="M1251.37,380.92h-64.2v-59.4h64.2V380.92z"/>
	<path class="st0" d="M1470.07,380.92h-58.8v-100.5c0-9.2-1.2-15.9-3.6-20.1c-3.4-6-9.4-9-18-9c-7,0-13.8,3.3-20.4,9.9
		c-5.4,5.8-9.1,12-11.1,18.6v101.1h-58.5v-178.8h58.5v15.3c12.6-12,28.6-18,48-18c18.6,0,33.5,4.8,44.7,14.4
		c12.8,11,19.2,27.8,19.2,50.4V380.92z"/>
	<path class="st0" d="M1689.67,306.22h-127.5c4.4,19.2,15.9,28.8,34.5,28.8c18,0,30.2-7.1,36.6-21.3l53.7,18.3
		c-12.8,34.6-42.7,51.9-89.7,51.9c-27.6,0-49.6-7.7-66-23.1c-17.6-16.2-26.4-39.3-26.4-69.3c0-30,8.7-53.1,26.1-69.3
		c16.2-15.2,38.1-22.8,65.7-22.8c62,0,93,35.2,93,105.6V306.22z M1564.27,269.32h65.4c-3.2-15.8-14.9-23.7-35.1-23.7
		C1579.96,245.62,1569.86,253.52,1564.27,269.32z"/>
	<path class="st0" d="M1845.66,251.32h-46.5v67.5c0,8,2.3,12.4,6.9,13.2c1.6,0.2,3.9,0.3,6.9,0.3h31.2v48.6h-53.4
		c-19,0-32.15-3.5-39.45-10.5c-7.3-7-10.95-19.4-10.95-37.2v-81.9h-34.8v-49.2h34.8v-46.8h58.8v46.8h46.5V251.32z"/>
</g>
<g>
	<path class="st1" d="M332.97,247.12c0,42.2-1.9,73.1-5.7,92.7c-3.6,18.8-9.9,31.3-18.9,37.5c-6.8,4.6-18.4,6.9-34.8,6.9
		c-21,0-41.4-1.5-61.2-4.5v-56.1c16,3.8,30.2,5.7,42.6,5.7c7,0,11.7-3.7,14.1-11.1c3.4-10.8,5.1-33.5,5.1-68.1v-17.4h-54.9
		c-7,76.8-40.3,128.9-99.9,156.3l-44.7-42.9c29.4-12.4,51-28.7,64.8-48.9c11.2-16.6,18.2-38.1,21-64.5h-70.5v-55.5h72.3v-48.3h58.8
		v48.3h111.9V247.12z"/>
	<path class="st1" d="M620.37,244.72c-26.6,78.4-83.4,126.7-170.4,144.9l-42.9-51.6c70.8-12.4,116.6-37.7,137.4-75.9h-174.9v-54.3
		h250.8V244.72z M594.27,189.82h-198.6v-54h198.6V189.82z"/>
	<path class="st1" d="M797.37,266.92c-15.8,20-32,37.5-48.6,52.5c-15.4,14-35,29.1-58.8,45.3l-44.1-42.9c28-18,49.6-33.3,64.8-45.9
		c17.8-14.8,33.9-31.5,48.3-50.1h-103.2v-54.6h141.6v-42.6h59.7v42.6h53.4v54.6h-53.4v117c0,17.6-4.3,29.9-12.9,36.9
		c-7.2,5.8-19.2,8.7-36,8.7h-37.5l-17.1-55.2h32.4c4.8,0,7.9-0.7,9.3-2.1c1.4-1.4,2.1-4.3,2.1-8.7V266.92z"/>
	<path class="st1" d="M1215.87,231.22h-50.7c-8.6,40.4-23.2,73.3-43.8,98.7c-20.6,25.4-50.6,46.6-90,63.6l-41.1-49.5
		c36.6-14.4,63.1-29.75,79.5-46.05c16.4-16.3,27.9-38.55,34.5-66.75h-68.1c-15.8,21.4-34.4,40.4-55.8,57l-45.3-38.7
		c23.8-19.4,42.5-38.5,56.1-57.3c14.2-19.8,25.3-42.7,33.3-68.7l60.6,8.4c-4.4,14.6-9.6,28.6-15.6,42h146.4V231.22z"/>
	<path class="st1" d="M1251.37,380.92h-64.2v-59.4h64.2V380.92z"/>
	<path class="st1" d="M1470.07,380.92h-58.8v-100.5c0-9.2-1.2-15.9-3.6-20.1c-3.4-6-9.4-9-18-9c-7,0-13.8,3.3-20.4,9.9
		c-5.4,5.8-9.1,12-11.1,18.6v101.1h-58.5v-178.8h58.5v15.3c12.6-12,28.6-18,48-18c18.6,0,33.5,4.8,44.7,14.4
		c12.8,11,19.2,27.8,19.2,50.4V380.92z"/>
	<path class="st1" d="M1689.67,306.22h-127.5c4.4,19.2,15.9,28.8,34.5,28.8c18,0,30.2-7.1,36.6-21.3l53.7,18.3
		c-12.8,34.6-42.7,51.9-89.7,51.9c-27.6,0-49.6-7.7-66-23.1c-17.6-16.2-26.4-39.3-26.4-69.3c0-30,8.7-53.1,26.1-69.3
		c16.2-15.2,38.1-22.8,65.7-22.8c62,0,93,35.2,93,105.6V306.22z M1564.27,269.32h65.4c-3.2-15.8-14.9-23.7-35.1-23.7
		C1579.96,245.62,1569.86,253.52,1564.27,269.32z"/>
	<path class="st1" d="M1845.66,251.32h-46.5v67.5c0,8,2.3,12.4,6.9,13.2c1.6,0.2,3.9,0.3,6.9,0.3h31.2v48.6h-53.4
		c-19,0-32.15-3.5-39.45-10.5c-7.3-7-10.95-19.4-10.95-37.2v-81.9h-34.8v-49.2h34.8v-46.8h58.8v46.8h46.5V251.32z"/>
</g>
</svg>
